<svg fill="none" height="42" viewBox="0 0 42 42" width="42" xmlns="http://www.w3.org/2000/svg"><path clip-rule="evenodd" d="m34 13c2.7614 0 5-2.2386 5-5 0-2.76142-2.2386-5-5-5s-5 2.23858-5 5c0 2.7614 2.2386 5 5 5zm0 3c4.4183 0 8-3.5817 8-8 0-4.41828-3.5817-8-8-8s-8 3.58172-8 8c0 .88453.1436 1.73553.4086 2.531l-11.7046 6.102c-1.4277-2.1874-3.897-3.633-6.704-3.633-4.41828 0-8 3.5817-8 8s3.58172 8 8 8c2.9388 0 5.5074-1.5846 6.8982-3.9459l11.4483 6.6096c-.2253.7391-.3465 1.5235-.3465 2.3363 0 4.4183 3.5817 8 8 8s8-3.5817 8-8-3.5817-8-8-8c-2.5304 0-4.7863 1.1748-6.2523 3.0086l-11.8336-6.8321c.0566-.384.0859-.7768.0859-1.1765 0-.5403-.0536-1.0681-.1557-1.5783l12.0325-6.2729c1.4675 1.7434 3.666 2.8512 6.1232 2.8512zm0 23c2.7614 0 5-2.2386 5-5s-2.2386-5-5-5-5 2.2386-5 5 2.2386 5 5 5zm-21-18c0 2.7614-2.2386 5-5 5-2.76142 0-5-2.2386-5-5s2.23858-5 5-5c2.7614 0 5 2.2386 5 5z" fill="#000928" fill-rule="evenodd"/></svg>
