<svg fill="none" height="40" viewBox="0 0 40 40" width="40" xmlns="http://www.w3.org/2000/svg"><path clip-rule="evenodd" d="m32.381 12.2381c2.551 0 4.619-2.068 4.619-4.61905 0-2.55103-2.068-4.61905-4.619-4.61905-2.5511 0-4.6191 2.06802-4.6191 4.61905 0 2.55105 2.068 4.61905 4.6191 4.61905zm0 3c4.2078 0 7.619-3.4112 7.619-7.61905 0-4.20789-3.4112-7.61905-7.619-7.61905-4.2079 0-7.6191 3.41116-7.6191 7.61905 0 .84241.1367 1.65289.3892 2.41045l-11.1473 5.8114c-1.3597-2.0832-3.7115-3.4599-6.38475-3.4599-4.20789 0-7.61905 3.4111-7.61905 7.619s3.41116 7.619 7.61905 7.619c2.79885 0 5.24515-1.5091 6.56975-3.758l10.9031 6.295c-.2146.7038-.33 1.4509-.33 2.225 0 4.2078 3.4112 7.619 7.6191 7.619 4.2078 0 7.619-3.4112 7.619-7.619 0-4.2079-3.4112-7.6191-7.619-7.6191-2.4099 0-4.5585 1.1188-5.9546 2.8654l-11.2701-6.5068c.0539-.3657.0818-.7398.0818-1.1205 0-.5146-.051-1.0172-.1482-1.5032l11.4595-5.9742c1.3976 1.6604 3.4914 2.7155 5.8316 2.7155zm0 21.7619c2.551 0 4.619-2.068 4.619-4.619 0-2.5511-2.068-4.6191-4.619-4.6191-2.5511 0-4.6191 2.068-4.6191 4.6191 0 2.551 2.068 4.619 4.6191 4.619zm-20.1429-17c0 2.551-2.068 4.619-4.61905 4.619-2.55103 0-4.61905-2.068-4.61905-4.619s2.06802-4.619 4.61905-4.619c2.55105 0 4.61905 2.068 4.61905 4.619z" fill="#000928" fill-rule="evenodd"/></svg>