<svg fill="none" height="48" viewBox="0 0 48 48" width="48" xmlns="http://www.w3.org/2000/svg"><filter id="a" filterUnits="userSpaceOnUse" height="48" width="48" x="0" y="0"><feFlood flood-opacity="0" result="BackgroundImageFix"/><feColorMatrix in="SourceAlpha" type="matrix" values="0 0 0 0 0 0 0 0 0 0 0 0 0 0 0 0 0 0 127 0"/><feOffset dy="4"/><feGaussianBlur stdDeviation="2"/><feColorMatrix type="matrix" values="0 0 0 0 0 0 0 0 0 0 0 0 0 0 0 0 0 0 0.25 0"/><feBlend in2="BackgroundImageFix" mode="normal" result="effect1_dropShadow"/><feBlend in="SourceGraphic" in2="effect1_dropShadow" mode="normal" result="shape"/></filter><clipPath id="b"><path d="m10 15h28v9.77403h-28z"/></clipPath><g filter="url(#a)"><circle cx="24" cy="20" fill="#000928" r="20"/><g clip-path="url(#b)" fill="#fff"><path d="m19.6796 15h-1.4637c-.2361 0-.425.1889-.425.3777v8.9714c0 .2361.1889.3777.425.3777h1.4637c.2361 0 .425-.1889.425-.3777v-8.9714c-.0473-.1888-.1889-.3777-.425-.3777z"/><path d="m29.6425 15h-1.4638c-.2361 0-.4249.1889-.4249.3777v5.3356l-4.108-5.5244s0-.0472-.0472-.0472c0 0 0 0-.0472-.0473 0 0 0 0-.0472 0h-1.4638c-.2361 0-.4249.1889-.4249.3778v8.9713c0 .2361.1888.3777.4249.3777h1.4638c.2361 0 .4249-.1888.4249-.3777v-5.3828l4.108 5.5717c.0472.0472.0472.0944.0944.0944h.0472.0472.0945 1.4637c.2361 0 .425-.1889.425-.3777v-8.9714c-.1889-.1888-.3778-.3777-.5666-.3777z"/><path d="m16.1855 22.5548h-3.9191v-7.1298c0-.2361-.1888-.425-.4249-.425h-1.4165c-.2361 0-.425.1889-.425.425v8.9713c0 .0944.0472.1889.0944.2833.0945.0472.1889.0944.2833.0944h5.7606c.2361 0 .3777-.1888.3777-.4249v-1.4638c.0472-.1416-.0944-.3305-.3305-.3305z"/><path d="m37.6223 17.2664c.2361 0 .3777-.1888.3777-.4249v-1.4165c0-.2361-.1416-.425-.3777-.425h-5.7606c-.0944 0-.1888.0472-.2833.0944-.0472.0945-.0944.1889-.0944.2833v8.9714c0 .0944.0472.1888.0944.2833.0945.0472.1889.0944.2833.0944h5.7606c.2361 0 .3777-.1889.3777-.4249v-1.4638c0-.2361-.1888-.4249-.3777-.4249h-3.9191v-1.511h3.9191c.2361 0 .3777-.1889.3777-.425v-1.3221c0-.1888-.1416-.3777-.3777-.3777h-3.9191v-1.511z"/></g></g></svg>
